<?xml version="1.0" encoding="UTF-8"?>
<svg width="400" height="400" viewBox="0 0 200 200" xmlns="http://www.w3.org/2000/svg">
  <rect width="200" height="200" fill="#322b29"/>
  <circle cx="100" cy="100" r="88" fill="none" stroke="#c29863" stroke-width=".9" opacity=".45"/>
  <circle cx="100" cy="100" r="82" fill="none" stroke="#c29863" stroke-width=".4" opacity=".25"/>
  <g transform="translate(100,100)">
    <path d="M0,-36 C10,-22 13,-9 0,0 C-13,-9 -10,-22 0,-36Z" fill="none" stroke="#c29863" stroke-width="1.1"/>
    <path d="M0,-36 C10,-22 13,-9 0,0 C-13,-9 -10,-22 0,-36Z" fill="none" stroke="#c29863" stroke-width="1.1" transform="rotate(120)"/>
    <path d="M0,-36 C10,-22 13,-9 0,0 C-13,-9 -10,-22 0,-36Z" fill="none" stroke="#c29863" stroke-width="1.1" transform="rotate(240)"/>
    <circle r="2.8" fill="#c29863" opacity=".9"/>
    <line x1="0" y1="-40" x2="0" y2="-47" stroke="#c29863" stroke-width=".7" stroke-linecap="round" opacity=".45"/>
    <line x1="0" y1="-40" x2="0" y2="-47" stroke="#c29863" stroke-width=".7" stroke-linecap="round" opacity=".45" transform="rotate(120)"/>
    <line x1="0" y1="-40" x2="0" y2="-47" stroke="#c29863" stroke-width=".7" stroke-linecap="round" opacity=".45" transform="rotate(240)"/>
  </g>
</svg>
